<mxfile host="app.diagrams.net" modified="2023-06-30T18:16:36.350Z" agent="Mozilla/5.0 (Windows NT 10.0; Win64; x64) AppleWebKit/537.36 (KHTML, like Gecko) Chrome/114.0.0.0 Safari/537.36" etag="XO1EgTFReGSSNuIx4Ulz" version="21.5.2" type="github">
  <diagram name="Page-1" id="FnSYKFYKJIk9WponfiXa">
    <mxGraphModel dx="1434" dy="764" grid="1" gridSize="10" guides="1" tooltips="1" connect="1" arrows="1" fold="1" page="1" pageScale="1" pageWidth="850" pageHeight="1100" math="0" shadow="0">
      <root>
        <mxCell id="0" />
        <mxCell id="1" parent="0" />
        <mxCell id="UZNenfd3J_JizV1olEOe-1" value="Valoriza" style="image;html=1;image=img/lib/clip_art/computers/Secure_System_128x128.png" vertex="1" parent="1">
          <mxGeometry x="250" y="220" width="215" height="150" as="geometry" />
        </mxCell>
        <mxCell id="UZNenfd3J_JizV1olEOe-19" style="edgeStyle=orthogonalEdgeStyle;rounded=0;orthogonalLoop=1;jettySize=auto;html=1;exitX=0;exitY=1;exitDx=0;exitDy=0;entryX=0.25;entryY=0;entryDx=0;entryDy=0;" edge="1" parent="1" source="UZNenfd3J_JizV1olEOe-2" target="UZNenfd3J_JizV1olEOe-1">
          <mxGeometry relative="1" as="geometry" />
        </mxCell>
        <mxCell id="UZNenfd3J_JizV1olEOe-20" value="&lt;font style=&quot;vertical-align: inherit;&quot;&gt;&lt;font style=&quot;vertical-align: inherit;&quot;&gt;visualiza os cadastros do sistema&lt;/font&gt;&lt;/font&gt;" style="edgeLabel;html=1;align=center;verticalAlign=middle;resizable=0;points=[];" vertex="1" connectable="0" parent="UZNenfd3J_JizV1olEOe-19">
          <mxGeometry x="-0.5882" y="5" relative="1" as="geometry">
            <mxPoint as="offset" />
          </mxGeometry>
        </mxCell>
        <mxCell id="UZNenfd3J_JizV1olEOe-21" style="edgeStyle=orthogonalEdgeStyle;rounded=0;orthogonalLoop=1;jettySize=auto;html=1;exitX=0.25;exitY=1;exitDx=0;exitDy=0;entryX=0.5;entryY=0;entryDx=0;entryDy=0;startArrow=classic;startFill=1;" edge="1" parent="1" source="UZNenfd3J_JizV1olEOe-2" target="UZNenfd3J_JizV1olEOe-1">
          <mxGeometry relative="1" as="geometry" />
        </mxCell>
        <mxCell id="UZNenfd3J_JizV1olEOe-22" value="visualizar/editar permições" style="edgeLabel;html=1;align=center;verticalAlign=middle;resizable=0;points=[];" vertex="1" connectable="0" parent="UZNenfd3J_JizV1olEOe-21">
          <mxGeometry x="0.0353" relative="1" as="geometry">
            <mxPoint as="offset" />
          </mxGeometry>
        </mxCell>
        <mxCell id="UZNenfd3J_JizV1olEOe-2" value="" style="image;html=1;image=img/lib/clip_art/people/Construction_Worker_Woman_Black_128x128.png" vertex="1" parent="1">
          <mxGeometry x="380" y="90" width="80" height="80" as="geometry" />
        </mxCell>
        <mxCell id="UZNenfd3J_JizV1olEOe-13" style="edgeStyle=orthogonalEdgeStyle;rounded=0;orthogonalLoop=1;jettySize=auto;html=1;exitX=0;exitY=0;exitDx=0;exitDy=0;entryX=0;entryY=1;entryDx=0;entryDy=0;startArrow=classic;startFill=1;endArrow=none;endFill=0;" edge="1" parent="1" source="UZNenfd3J_JizV1olEOe-4" target="UZNenfd3J_JizV1olEOe-1">
          <mxGeometry relative="1" as="geometry" />
        </mxCell>
        <mxCell id="UZNenfd3J_JizV1olEOe-16" value="&lt;font style=&quot;vertical-align: inherit;&quot;&gt;&lt;font style=&quot;vertical-align: inherit;&quot;&gt;inscrever projeto&lt;/font&gt;&lt;/font&gt;" style="edgeLabel;html=1;align=center;verticalAlign=middle;resizable=0;points=[];" vertex="1" connectable="0" parent="UZNenfd3J_JizV1olEOe-13">
          <mxGeometry x="0.3" y="-3" relative="1" as="geometry">
            <mxPoint as="offset" />
          </mxGeometry>
        </mxCell>
        <mxCell id="UZNenfd3J_JizV1olEOe-14" style="edgeStyle=orthogonalEdgeStyle;rounded=0;orthogonalLoop=1;jettySize=auto;html=1;exitX=0.25;exitY=0;exitDx=0;exitDy=0;entryX=0.175;entryY=0.975;entryDx=0;entryDy=0;entryPerimeter=0;" edge="1" parent="1" source="UZNenfd3J_JizV1olEOe-4" target="UZNenfd3J_JizV1olEOe-1">
          <mxGeometry relative="1" as="geometry" />
        </mxCell>
        <mxCell id="UZNenfd3J_JizV1olEOe-17" value="&lt;font style=&quot;vertical-align: inherit;&quot;&gt;&lt;font style=&quot;vertical-align: inherit;&quot;&gt;ver incriçoes&lt;/font&gt;&lt;/font&gt;" style="edgeLabel;html=1;align=center;verticalAlign=middle;resizable=0;points=[];" vertex="1" connectable="0" parent="UZNenfd3J_JizV1olEOe-14">
          <mxGeometry x="0.6176" relative="1" as="geometry">
            <mxPoint as="offset" />
          </mxGeometry>
        </mxCell>
        <mxCell id="UZNenfd3J_JizV1olEOe-15" style="edgeStyle=orthogonalEdgeStyle;rounded=0;orthogonalLoop=1;jettySize=auto;html=1;exitX=0.5;exitY=0;exitDx=0;exitDy=0;entryX=0.5;entryY=1;entryDx=0;entryDy=0;startArrow=classic;startFill=1;endArrow=none;endFill=0;" edge="1" parent="1" source="UZNenfd3J_JizV1olEOe-4" target="UZNenfd3J_JizV1olEOe-1">
          <mxGeometry relative="1" as="geometry" />
        </mxCell>
        <mxCell id="UZNenfd3J_JizV1olEOe-18" value="&lt;font style=&quot;vertical-align: inherit;&quot;&gt;&lt;font style=&quot;vertical-align: inherit;&quot;&gt;ver dados da conta&lt;/font&gt;&lt;/font&gt;" style="edgeLabel;html=1;align=center;verticalAlign=middle;resizable=0;points=[];" vertex="1" connectable="0" parent="UZNenfd3J_JizV1olEOe-15">
          <mxGeometry x="-0.6143" y="1" relative="1" as="geometry">
            <mxPoint as="offset" />
          </mxGeometry>
        </mxCell>
        <mxCell id="UZNenfd3J_JizV1olEOe-4" value="&lt;font style=&quot;vertical-align: inherit;&quot;&gt;&lt;font style=&quot;vertical-align: inherit;&quot;&gt;servidor-usúario&lt;/font&gt;&lt;/font&gt;" style="image;html=1;image=img/lib/clip_art/people/Military_Officer_Woman_Black_128x128.png" vertex="1" parent="1">
          <mxGeometry x="370" y="530" width="80" height="80" as="geometry" />
        </mxCell>
        <mxCell id="UZNenfd3J_JizV1olEOe-9" style="edgeStyle=orthogonalEdgeStyle;rounded=0;orthogonalLoop=1;jettySize=auto;html=1;exitX=1;exitY=0;exitDx=0;exitDy=0;entryX=0;entryY=0;entryDx=0;entryDy=0;" edge="1" parent="1" source="UZNenfd3J_JizV1olEOe-6" target="UZNenfd3J_JizV1olEOe-1">
          <mxGeometry relative="1" as="geometry" />
        </mxCell>
        <mxCell id="UZNenfd3J_JizV1olEOe-10" value="&lt;font style=&quot;vertical-align: inherit;&quot;&gt;&lt;font style=&quot;vertical-align: inherit;&quot;&gt;&lt;font style=&quot;vertical-align: inherit;&quot;&gt;&lt;font style=&quot;vertical-align: inherit;&quot;&gt;login/cadastro&lt;/font&gt;&lt;/font&gt;&lt;/font&gt;&lt;/font&gt;" style="edgeLabel;html=1;align=center;verticalAlign=middle;resizable=0;points=[];" vertex="1" connectable="0" parent="UZNenfd3J_JizV1olEOe-9">
          <mxGeometry x="-0.0455" y="-3" relative="1" as="geometry">
            <mxPoint as="offset" />
          </mxGeometry>
        </mxCell>
        <mxCell id="UZNenfd3J_JizV1olEOe-11" style="edgeStyle=orthogonalEdgeStyle;rounded=0;orthogonalLoop=1;jettySize=auto;html=1;exitX=1;exitY=0.25;exitDx=0;exitDy=0;entryX=0;entryY=0.25;entryDx=0;entryDy=0;startArrow=classic;startFill=1;endArrow=none;endFill=0;" edge="1" parent="1" source="UZNenfd3J_JizV1olEOe-6" target="UZNenfd3J_JizV1olEOe-1">
          <mxGeometry relative="1" as="geometry" />
        </mxCell>
        <mxCell id="UZNenfd3J_JizV1olEOe-12" value="&lt;font style=&quot;vertical-align: inherit;&quot;&gt;&lt;font style=&quot;vertical-align: inherit;&quot;&gt;ações abertas&lt;/font&gt;&lt;/font&gt;" style="edgeLabel;html=1;align=center;verticalAlign=middle;resizable=0;points=[];" vertex="1" connectable="0" parent="UZNenfd3J_JizV1olEOe-11">
          <mxGeometry x="0.2222" y="-5" relative="1" as="geometry">
            <mxPoint as="offset" />
          </mxGeometry>
        </mxCell>
        <mxCell id="UZNenfd3J_JizV1olEOe-6" value="&lt;font style=&quot;vertical-align: inherit;&quot;&gt;&lt;font style=&quot;vertical-align: inherit;&quot;&gt;visitante&lt;/font&gt;&lt;/font&gt;" style="image;html=1;image=img/lib/clip_art/people/Suit_Woman_Green_Black_128x128.png" vertex="1" parent="1">
          <mxGeometry x="120" y="320" width="80" height="80" as="geometry" />
        </mxCell>
        <mxCell id="UZNenfd3J_JizV1olEOe-23" style="edgeStyle=orthogonalEdgeStyle;rounded=0;orthogonalLoop=1;jettySize=auto;html=1;exitX=0.25;exitY=0;exitDx=0;exitDy=0;entryX=1;entryY=0;entryDx=0;entryDy=0;" edge="1" parent="1" source="UZNenfd3J_JizV1olEOe-7" target="UZNenfd3J_JizV1olEOe-1">
          <mxGeometry relative="1" as="geometry" />
        </mxCell>
        <mxCell id="UZNenfd3J_JizV1olEOe-29" value="casdastro/login" style="edgeLabel;html=1;align=center;verticalAlign=middle;resizable=0;points=[];" vertex="1" connectable="0" parent="UZNenfd3J_JizV1olEOe-23">
          <mxGeometry x="0.3633" y="-4" relative="1" as="geometry">
            <mxPoint as="offset" />
          </mxGeometry>
        </mxCell>
        <mxCell id="UZNenfd3J_JizV1olEOe-24" style="edgeStyle=orthogonalEdgeStyle;rounded=0;orthogonalLoop=1;jettySize=auto;html=1;exitX=0;exitY=0.25;exitDx=0;exitDy=0;entryX=1;entryY=0.25;entryDx=0;entryDy=0;" edge="1" parent="1" source="UZNenfd3J_JizV1olEOe-7" target="UZNenfd3J_JizV1olEOe-1">
          <mxGeometry relative="1" as="geometry">
            <Array as="points">
              <mxPoint x="590" y="300" />
              <mxPoint x="590" y="258" />
            </Array>
          </mxGeometry>
        </mxCell>
        <mxCell id="UZNenfd3J_JizV1olEOe-31" value="gestão de ações" style="edgeLabel;html=1;align=center;verticalAlign=middle;resizable=0;points=[];" vertex="1" connectable="0" parent="UZNenfd3J_JizV1olEOe-24">
          <mxGeometry x="0.3493" y="2" relative="1" as="geometry">
            <mxPoint as="offset" />
          </mxGeometry>
        </mxCell>
        <mxCell id="UZNenfd3J_JizV1olEOe-25" style="edgeStyle=orthogonalEdgeStyle;rounded=0;orthogonalLoop=1;jettySize=auto;html=1;exitX=0;exitY=0.5;exitDx=0;exitDy=0;entryX=1;entryY=0.5;entryDx=0;entryDy=0;" edge="1" parent="1" source="UZNenfd3J_JizV1olEOe-7" target="UZNenfd3J_JizV1olEOe-1">
          <mxGeometry relative="1" as="geometry" />
        </mxCell>
        <mxCell id="UZNenfd3J_JizV1olEOe-32" value="gestão de projeto por ações" style="edgeLabel;html=1;align=center;verticalAlign=middle;resizable=0;points=[];" vertex="1" connectable="0" parent="UZNenfd3J_JizV1olEOe-25">
          <mxGeometry x="0.3176" y="-4" relative="1" as="geometry">
            <mxPoint as="offset" />
          </mxGeometry>
        </mxCell>
        <mxCell id="UZNenfd3J_JizV1olEOe-26" style="edgeStyle=orthogonalEdgeStyle;rounded=0;orthogonalLoop=1;jettySize=auto;html=1;exitX=0;exitY=0.75;exitDx=0;exitDy=0;entryX=1;entryY=0.75;entryDx=0;entryDy=0;" edge="1" parent="1" source="UZNenfd3J_JizV1olEOe-7" target="UZNenfd3J_JizV1olEOe-1">
          <mxGeometry relative="1" as="geometry" />
        </mxCell>
        <mxCell id="UZNenfd3J_JizV1olEOe-33" value="convigar gestor para ação" style="edgeLabel;html=1;align=center;verticalAlign=middle;resizable=0;points=[];" vertex="1" connectable="0" parent="UZNenfd3J_JizV1olEOe-26">
          <mxGeometry x="-0.0574" y="1" relative="1" as="geometry">
            <mxPoint as="offset" />
          </mxGeometry>
        </mxCell>
        <mxCell id="UZNenfd3J_JizV1olEOe-27" style="edgeStyle=orthogonalEdgeStyle;rounded=0;orthogonalLoop=1;jettySize=auto;html=1;exitX=0;exitY=1;exitDx=0;exitDy=0;entryX=1;entryY=1;entryDx=0;entryDy=0;" edge="1" parent="1" source="UZNenfd3J_JizV1olEOe-7" target="UZNenfd3J_JizV1olEOe-1">
          <mxGeometry relative="1" as="geometry" />
        </mxCell>
        <mxCell id="UZNenfd3J_JizV1olEOe-34" value="cadastrar projetos inscritos" style="edgeLabel;html=1;align=center;verticalAlign=middle;resizable=0;points=[];" vertex="1" connectable="0" parent="UZNenfd3J_JizV1olEOe-27">
          <mxGeometry x="-0.0618" y="2" relative="1" as="geometry">
            <mxPoint as="offset" />
          </mxGeometry>
        </mxCell>
        <mxCell id="UZNenfd3J_JizV1olEOe-28" style="edgeStyle=orthogonalEdgeStyle;rounded=0;orthogonalLoop=1;jettySize=auto;html=1;exitX=0;exitY=0;exitDx=0;exitDy=0;entryX=0.977;entryY=0.067;entryDx=0;entryDy=0;entryPerimeter=0;" edge="1" parent="1" source="UZNenfd3J_JizV1olEOe-7" target="UZNenfd3J_JizV1olEOe-1">
          <mxGeometry relative="1" as="geometry" />
        </mxCell>
        <mxCell id="UZNenfd3J_JizV1olEOe-30" value="criar ações" style="edgeLabel;html=1;align=center;verticalAlign=middle;resizable=0;points=[];" vertex="1" connectable="0" parent="UZNenfd3J_JizV1olEOe-28">
          <mxGeometry x="0.3" y="-1" relative="1" as="geometry">
            <mxPoint as="offset" />
          </mxGeometry>
        </mxCell>
        <mxCell id="UZNenfd3J_JizV1olEOe-7" value="Gestores" style="image;html=1;image=img/lib/clip_art/people/Telesales_Man_128x128.png" vertex="1" parent="1">
          <mxGeometry x="710" y="280" width="80" height="80" as="geometry" />
        </mxCell>
      </root>
    </mxGraphModel>
  </diagram>
</mxfile>
